<?xml version="1.0" standalone="no"?>
<!DOCTYPE svg PUBLIC "-//W3C//DTD SVG 20010904//EN"
 "http://www.w3.org/TR/2001/REC-SVG-20010904/DTD/svg10.dtd">
<svg version="1.0" xmlns="http://www.w3.org/2000/svg"
 width="569.000000pt" height="174.000000pt" viewBox="0 0 569.000000 174.000000"
 preserveAspectRatio="xMidYMid meet">

<g transform="translate(0.000000,174.000000) scale(0.100000,-0.100000)"
fill="#000000" stroke="none">
<path d="M803 1362 c-9 -5 -13 -51 -15 -145 -2 -82 -7 -137 -13 -138 -5 -1
-28 49 -50 110 -41 115 -61 139 -92 108 -13 -13 -11 -29 22 -143 28 -99 35
-138 30 -171 -3 -24 -9 -43 -12 -43 -3 0 -25 18 -48 39 -44 41 -111 68 -139
58 -27 -11 -18 -44 18 -66 34 -21 61 -56 110 -144 16 -27 48 -63 72 -80 l45
-32 -7 -277 -7 -278 79 0 c72 0 149 11 160 23 3 2 0 120 -6 263 -9 246 -9 259
9 278 35 39 52 86 62 174 9 74 17 98 55 164 53 93 64 132 39 142 -24 9 -35 -2
-95 -95 -29 -44 -55 -77 -57 -75 -3 3 7 55 21 116 31 130 32 165 9 174 -27 11
-42 -14 -73 -124 -16 -58 -33 -112 -37 -120 -9 -20 -21 75 -22 181 -1 98 -17
127 -58 101z m-33 -432 c22 -11 45 -30 51 -43 11 -20 9 -20 -17 4 -16 15 -42
34 -59 42 -16 9 -26 16 -22 17 4 0 25 -9 47 -20z"/>
<path d="M4060 1010 l0 -110 -45 32 c-39 27 -56 33 -113 36 -83 4 -132 -21
-178 -90 -37 -55 -47 -105 -33 -167 37 -165 233 -224 354 -107 27 25 47 56 54
81 6 23 11 125 11 238 l0 197 -25 0 -25 0 0 -110z m-82 -107 c49 -23 75 -67
80 -132 4 -68 -17 -115 -67 -148 -73 -49 -166 -35 -219 35 -23 30 -27 45 -27
101 0 54 4 72 23 96 57 72 123 87 210 48z"/>
<path d="M1869 1094 c-60 -18 -137 -87 -169 -150 -52 -105 -21 -261 68 -334
112 -93 302 -92 406 1 39 36 40 38 22 52 -18 13 -24 11 -65 -18 -62 -44 -112
-59 -181 -52 -180 16 -274 190 -185 342 46 79 112 115 210 115 71 0 120 -17
167 -59 29 -26 36 -27 52 -16 25 19 16 38 -35 75 -79 57 -193 74 -290 44z"/>
<path d="M4230 821 l0 -281 25 0 25 0 0 129 0 128 92 7 c106 7 154 27 181 73
21 37 25 101 8 141 -6 15 -28 38 -48 52 -33 23 -48 25 -160 29 l-123 3 0 -281z
m263 189 c24 -27 28 -39 23 -68 -10 -63 -33 -77 -141 -80 l-95 -4 0 89 c0 49
3 93 8 97 4 5 45 6 91 4 80 -4 85 -6 114 -38z"/>
<path d="M2645 956 c-40 -18 -90 -72 -109 -118 -63 -151 66 -318 226 -294 211
32 251 329 56 411 -45 18 -132 19 -173 1z m166 -59 c52 -35 79 -82 79 -139 0
-73 -34 -127 -99 -154 -46 -19 -77 -18 -127 7 -81 39 -113 133 -74 214 43 90
145 123 221 72z"/>
<path d="M4785 954 c-132 -68 -165 -230 -70 -341 75 -88 218 -93 295 -11 l20
22 0 -42 c0 -40 1 -42 30 -42 l30 0 0 121 c0 67 -5 139 -11 160 -16 52 -64
108 -113 130 -51 23 -140 24 -181 3z m154 -49 c44 -22 79 -71 86 -119 12 -80
-60 -180 -135 -187 -57 -5 -81 2 -119 37 -31 27 -43 47 -52 89 -11 48 -10 57
11 99 40 84 134 120 209 81z"/>
<path d="M2381 924 c-68 -61 -81 -100 -81 -252 l0 -132 24 0 c23 0 23 1 28
134 4 126 6 137 32 176 15 22 39 46 54 51 48 19 57 26 60 43 3 13 -5 16 -37
16 -33 0 -49 -7 -80 -36z"/>
<path d="M5159 938 c5 -13 43 -98 83 -189 l75 -165 -39 -89 c-21 -49 -38 -90
-38 -92 0 -3 12 -3 27 -1 26 3 36 21 149 281 l122 278 -30 -3 c-28 -3 -33 -11
-93 -152 -36 -82 -66 -150 -68 -153 -2 -2 -35 66 -72 152 -65 147 -70 155 -97
155 -24 0 -27 -2 -19 -22z"/>
<path d="M3024 873 c117 -274 139 -324 145 -327 4 -3 34 57 67 132 34 75 65
137 70 139 5 2 36 -58 69 -133 32 -74 62 -137 66 -140 6 -3 156 330 174 386 6
19 3 21 -20 18 -24 -3 -33 -17 -88 -146 -33 -78 -63 -139 -67 -135 -4 4 -33
70 -66 145 -32 76 -63 136 -67 135 -4 -1 -37 -67 -72 -147 l-64 -145 -24 55
c-13 30 -41 97 -62 148 -36 84 -41 92 -67 92 l-27 0 33 -77z"/>
<path d="M361 911 c-10 -7 -10 -24 -1 -90 7 -45 10 -84 7 -87 -3 -4 -22 26
-41 65 -20 39 -41 71 -46 71 -24 0 -21 -37 9 -111 19 -46 30 -87 26 -98 -6
-19 -7 -19 -43 5 -36 25 -82 29 -89 8 -2 -6 12 -21 31 -32 19 -11 47 -39 62
-61 15 -23 30 -41 34 -41 4 0 18 -10 32 -23 23 -21 26 -34 33 -131 l7 -107 51
-30 c52 -29 94 -45 102 -37 2 2 -6 70 -20 151 l-23 148 20 46 c13 30 18 59 16
87 -4 28 3 60 20 104 23 59 24 101 2 87 -6 -4 -24 -32 -40 -63 l-30 -57 6 93
c6 88 6 94 -12 90 -18 -3 -19 -7 -39 -123 -6 -33 -9 -36 -15 -20 -4 11 -11 48
-15 82 -7 64 -21 88 -44 74z m40 -278 c13 -17 13 -17 -6 -3 -11 8 -22 16 -24
17 -2 2 0 3 6 3 6 0 17 -8 24 -17z"/>
<path d="M1197 864 c-4 -4 -7 -30 -8 -58 -1 -28 -4 -62 -9 -76 -9 -29 -13 -22
-33 60 -9 39 -19 56 -32 58 -16 4 -17 -1 -12 -39 16 -121 17 -145 9 -157 -7
-10 -16 -6 -40 17 -18 19 -41 31 -56 31 -32 0 -33 -11 -5 -36 12 -10 31 -39
42 -64 10 -25 32 -58 47 -75 l27 -30 -17 -130 c-10 -71 -16 -131 -15 -133 5
-6 69 30 106 59 35 27 36 31 42 110 5 60 12 88 25 103 21 23 42 78 42 109 0
10 16 41 35 67 59 80 37 115 -24 39 -18 -22 -35 -39 -37 -36 -2 2 5 30 16 62
24 69 25 95 6 95 -8 0 -26 -29 -42 -70 -15 -38 -29 -70 -32 -70 -2 0 -3 37 -1
82 3 68 1 83 -11 86 -9 1 -19 0 -23 -4z"/>
</g>
</svg>
